<svg width="461" height="55" xmlns="http://www.w3.org/2000/svg" xmlns:xlink="http://www.w3.org/1999/xlink" xml:space="preserve" overflow="hidden"><g transform="translate(-1945 -103)"><path d="M12.7704 2.96515C16.7257 2.96515 20.182 3.73125 23.1397 5.26347 26.1328 6.76005 28.4311 8.93366 30.0346 11.7843 31.6736 14.5993 32.4933 17.8954 32.4933 21.6723 32.4933 25.4495 31.6736 28.7276 30.0346 31.507 28.4311 34.2864 26.1328 36.4243 23.1397 37.9209 20.182 39.382 16.7257 40.1123 12.7704 40.1123L0.637451 40.1123 0.637451 2.96515 12.7704 2.96515ZM12.7704 35.1416C17.1177 35.1416 20.4493 33.9657 22.7655 31.6139 25.0816 29.2621 26.2397 25.9483 26.2397 21.6723 26.2397 17.3609 25.0816 13.9936 22.7655 11.5705 20.4493 9.14746 17.1177 7.93593 12.7704 7.93593L6.73067 7.93593 6.73067 35.1416 12.7704 35.1416ZM36.501 25.2534C36.501 22.296 37.1069 19.677 38.3183 17.3964 39.5656 15.116 41.2403 13.3521 43.3426 12.105 45.4805 10.8222 47.8323 10.1808 50.3979 10.1808 52.7141 10.1808 54.7272 10.644 56.4376 11.5705 58.1837 12.4613 59.5734 13.5837 60.6067 14.9377L60.6067 10.6618 66.7533 10.6618 66.7533 40.1123 60.6067 40.1123 60.6067 35.7295C59.5734 37.1192 58.1659 38.2773 56.3842 39.2037 54.6026 40.1302 52.5715 40.5934 50.291 40.5934 47.7611 40.5934 45.445 39.952 43.3426 38.6692 41.2403 37.3509 39.5656 35.5336 38.3183 33.2174 37.1069 30.8656 36.501 28.2111 36.501 25.2534ZM60.6067 25.3603C60.6067 23.3293 60.1791 21.5654 59.3239 20.0689 58.5044 18.5723 57.4176 17.4321 56.0635 16.6481 54.7095 15.8643 53.2486 15.4722 51.6806 15.4722 50.1128 15.4722 48.6519 15.8643 47.2978 16.6481 45.9438 17.3964 44.8391 18.5188 43.9839 20.0154 43.1644 21.4765 42.7546 23.2224 42.7546 25.2534 42.7546 27.2845 43.1644 29.0662 43.9839 30.5984 44.8391 32.1306 45.9438 33.3065 47.2978 34.126 48.6875 34.91 50.1485 35.3019 51.6806 35.3019 53.2486 35.3019 54.7095 34.91 56.0635 34.126 57.4176 33.3422 58.5044 32.2019 59.3239 30.7053 60.1791 29.1731 60.6067 27.3914 60.6067 25.3603ZM86.1413 34.6605 94.4793 10.6618 100.947 10.6618 89.7224 40.1123 82.4533 40.1123 71.2824 10.6618 77.8032 10.6618 86.1413 34.6605ZM103.521 25.2534C103.521 22.296 104.127 19.677 105.339 17.3964 106.586 15.116 108.261 13.3521 110.363 12.105 112.501 10.8222 114.853 10.1808 117.418 10.1808 119.734 10.1808 121.748 10.644 123.458 11.5705 125.204 12.4613 126.594 13.5837 127.627 14.9377L127.627 10.6618 133.774 10.6618 133.774 40.1123 127.627 40.1123 127.627 35.7295C126.594 37.1192 125.186 38.2773 123.405 39.2037 121.623 40.1302 119.592 40.5934 117.311 40.5934 114.781 40.5934 112.465 39.952 110.363 38.6692 108.261 37.3509 106.586 35.5336 105.339 33.2174 104.127 30.8656 103.521 28.2111 103.521 25.2534ZM127.627 25.3603C127.627 23.3293 127.2 21.5654 126.344 20.0689 125.525 18.5723 124.438 17.4321 123.084 16.6481 121.73 15.8643 120.269 15.4722 118.701 15.4722 117.133 15.4722 115.672 15.8643 114.318 16.6481 112.964 17.3964 111.86 18.5188 111.004 20.0154 110.185 21.4765 109.775 23.2224 109.775 25.2534 109.775 27.2845 110.185 29.0662 111.004 30.5984 111.86 32.1306 112.964 33.3065 114.318 34.126 115.708 34.91 117.169 35.3019 118.701 35.3019 120.269 35.3019 121.73 34.91 123.084 34.126 124.438 33.3422 125.525 32.2019 126.344 30.7053 127.2 29.1731 127.627 27.3914 127.627 25.3603ZM171.719 21.5654 183.264 40.1123 176.423 40.1123 168.031 26.6431 160.174 40.1123 153.386 40.1123 164.931 21.5654 153.333 2.96515 160.174 2.96515 168.619 16.5412 176.53 2.96515 183.318 2.96515 171.719 21.5654ZM226.233 32.5225 210.68 32.5225 208.007 40.1123 201.647 40.1123 214.956 2.9117 222.011 2.9117 235.32 40.1123 228.906 40.1123 226.233 32.5225ZM224.523 27.5518 218.483 10.2877 212.39 27.5518 224.523 27.5518ZM239.076 25.3603C239.076 22.3316 239.681 19.677 240.893 17.3964 242.14 15.0803 243.85 13.2987 246.024 12.0515 248.198 10.8044 250.692 10.1808 253.507 10.1808 257.071 10.1808 260.011 11.036 262.326 12.7464 264.678 14.4211 266.264 16.8264 267.083 19.962L260.509 19.962C259.975 18.5011 259.119 17.3609 257.944 16.5412 256.768 15.7217 255.288 15.3119 253.507 15.3119 251.012 15.3119 249.017 16.2027 247.521 17.9843 246.06 19.7304 245.329 22.1891 245.329 25.3603 245.329 28.5318 246.06 31.0082 247.521 32.7898 249.017 34.5715 251.012 35.4623 253.507 35.4623 257.035 35.4623 259.369 33.9122 260.509 30.8122L267.083 30.8122C266.228 33.8053 264.625 36.1928 262.273 37.9744 259.921 39.7204 256.999 40.5934 253.507 40.5934 250.692 40.5934 248.198 39.9699 246.024 38.7227 243.85 37.4399 242.14 35.6583 240.893 33.3777 239.681 31.0616 239.076 28.3892 239.076 25.3603ZM271.124 25.2534C271.124 22.296 271.731 19.677 272.941 17.3964 274.189 15.116 275.864 13.3521 277.966 12.105 280.104 10.8222 282.455 10.1808 285.021 10.1808 287.338 10.1808 289.35 10.644 291.061 11.5705 292.807 12.4613 294.197 13.5837 295.23 14.9377L295.23 10.6618 301.376 10.6618 301.376 40.1123 295.23 40.1123 295.23 35.7295C294.197 37.1192 292.79 38.2773 291.007 39.2037 289.226 40.1302 287.195 40.5934 284.914 40.5934 282.385 40.5934 280.069 39.952 277.966 38.6692 275.864 37.3509 274.189 35.5336 272.941 33.2174 271.731 30.8656 271.124 28.2111 271.124 25.2534ZM295.23 25.3603C295.23 23.3293 294.802 21.5654 293.947 20.0689 293.128 18.5723 292.041 17.4321 290.687 16.6481 289.333 15.8643 287.872 15.4722 286.304 15.4722 284.736 15.4722 283.276 15.8643 281.921 16.6481 280.567 17.3964 279.462 18.5188 278.607 20.0154 277.788 21.4765 277.378 23.2224 277.378 25.2534 277.378 27.2845 277.788 29.0662 278.607 30.5984 279.462 32.1306 280.567 33.3065 281.921 34.126 283.311 34.91 284.772 35.3019 286.304 35.3019 287.872 35.3019 289.333 34.91 290.687 34.126 292.041 33.3422 293.128 32.2019 293.947 30.7053 294.802 29.1731 295.23 27.3914 295.23 25.3603ZM307.349 25.2534C307.349 22.296 307.955 19.677 309.167 17.3964 310.413 15.116 312.088 13.3521 314.191 12.105 316.329 10.8222 318.698 10.1808 321.3 10.1808 323.224 10.1808 325.112 10.6084 326.965 11.4636 328.853 12.2832 330.35 13.3877 331.455 14.7774L331.455 0.559939 337.602 0.559939 337.602 40.1123 331.455 40.1123 331.455 35.6761C330.457 37.1014 329.067 38.2773 327.286 39.2037 325.539 40.1302 323.526 40.5934 321.246 40.5934 318.681 40.5934 316.329 39.952 314.191 38.6692 312.088 37.3509 310.413 35.5336 309.167 33.2174 307.955 30.8656 307.349 28.2111 307.349 25.2534ZM331.455 25.3603C331.455 23.3293 331.027 21.5654 330.172 20.0689 329.352 18.5723 328.265 17.4321 326.912 16.6481 325.557 15.8643 324.096 15.4722 322.529 15.4722 320.96 15.4722 319.5 15.8643 318.146 16.6481 316.791 17.3964 315.687 18.5188 314.832 20.0154 314.012 21.4765 313.603 23.2224 313.603 25.2534 313.603 27.2845 314.012 29.0662 314.832 30.5984 315.687 32.1306 316.791 33.3065 318.146 34.126 319.536 34.91 320.996 35.3019 322.529 35.3019 324.096 35.3019 325.557 34.91 326.912 34.126 328.265 33.3422 329.352 32.2019 330.172 30.7053 331.027 29.1731 331.455 27.3914 331.455 25.3603ZM372.596 24.6655C372.596 25.7702 372.525 26.7679 372.382 27.6587L349.88 27.6587C350.058 30.0104 350.932 31.8991 352.499 33.3243 354.067 34.7496 355.991 35.4623 358.272 35.4623 361.55 35.4623 363.867 34.0905 365.22 31.3467L371.794 31.3467C370.903 34.0548 369.282 36.2819 366.931 38.0278 364.615 39.7382 361.729 40.5934 358.272 40.5934 355.456 40.5934 352.927 39.9699 350.682 38.7227 348.473 37.4399 346.727 35.6583 345.444 33.3777 344.197 31.0616 343.573 28.3892 343.573 25.3603 343.573 22.3316 344.179 19.677 345.391 17.3964 346.637 15.0803 348.366 13.2987 350.575 12.0515 352.82 10.8044 355.386 10.1808 358.272 10.1808 361.051 10.1808 363.527 10.7866 365.701 11.9981 367.875 13.2096 369.567 14.92 370.779 17.1292 371.991 19.3028 372.596 21.8149 372.596 24.6655ZM366.236 22.7413C366.2 20.4965 365.398 18.6971 363.831 17.343 362.263 15.9889 360.32 15.3119 358.005 15.3119 355.903 15.3119 354.103 15.9889 352.606 17.343 351.11 18.6614 350.218 20.4609 349.934 22.7413L366.236 22.7413ZM414.244 10.1808C416.56 10.1808 418.627 10.6618 420.444 11.6239 422.296 12.586 423.739 14.0113 424.773 15.8998 425.842 17.7885 426.377 20.0689 426.377 22.7413L426.377 40.1123 420.337 40.1123 420.337 23.65C420.337 21.0132 419.677 18.9999 418.359 17.6102 417.041 16.185 415.241 15.4722 412.961 15.4722 410.68 15.4722 408.863 16.185 407.509 17.6102 406.19 18.9999 405.532 21.0132 405.532 23.65L405.532 40.1123 399.492 40.1123 399.492 23.65C399.492 21.0132 398.832 18.9999 397.514 17.6102 396.195 16.185 394.396 15.4722 392.116 15.4722 389.835 15.4722 388.018 16.185 386.664 17.6102 385.345 18.9999 384.686 21.0132 384.686 23.65L384.686 40.1123 378.593 40.1123 378.593 10.6618 384.686 10.6618 384.686 14.0291C385.683 12.8176 386.949 11.8734 388.481 11.1963 390.013 10.5193 391.652 10.1808 393.399 10.1808 395.75 10.1808 397.852 10.6797 399.706 11.6774 401.558 12.6751 402.983 14.1182 403.982 16.0067 404.872 14.2251 406.261 12.8176 408.151 11.7843 410.039 10.7153 412.07 10.1808 414.244 10.1808ZM460.641 10.6618 442.575 53.9557 436.268 53.9557 442.254 39.6313 430.655 10.6618 437.444 10.6618 445.728 33.1105 454.333 10.6618 460.641 10.6618Z" fill="#FFFFFF" transform="matrix(1 0 0 1.00392 1945 103)"/><path d="M144.236 40.4865C143.13 40.4865 142.204 40.1123 141.456 39.3641 140.708 38.6158 140.334 37.6894 140.334 36.5847 140.334 35.4802 140.708 34.5536 141.456 33.8053 142.204 33.057 143.13 32.6829 144.236 32.6829 145.305 32.6829 146.213 33.057 146.961 33.8053 147.71 34.5536 148.084 35.4802 148.084 36.5847 148.084 37.6894 147.71 38.6158 146.961 39.3641 146.213 40.1123 145.305 40.4865 144.236 40.4865Z" fill="#FF5640" transform="matrix(1 0 0 1.00392 1945 103)"/></g></svg>